<svg width="28" height="28" viewBox="0 0 28 28" fill="none" xmlns="http://www.w3.org/2000/svg">
<path d="M13.9996 24.5C16.3293 24.4997 18.5928 23.7245 20.4336 22.2966C22.2745 20.8687 23.5882 18.8691 24.1678 16.6126C24.7475 14.3562 24.5603 11.971 23.6356 9.83261C22.711 7.69423 21.1014 5.9241 19.0603 4.8009C17.0192 3.67769 14.6625 3.26521 12.3613 3.62838C10.06 3.99155 7.9449 5.10975 6.3489 6.80694C4.75291 8.50412 3.76668 10.6839 3.54549 13.0031C3.3243 15.3223 3.88071 17.6492 5.12711 19.6175L3.49961 24.5L8.38211 22.8725C10.0616 23.9385 12.0104 24.5031 13.9996 24.5Z" fill="currentColor" stroke="currentColor" stroke-width="2" stroke-linecap="round" stroke-linejoin="round"/>
</svg>
